<?xml version="1.0" encoding="utf-8"?>
<!-- Generator: Adobe Illustrator 22.0.1, SVG Export Plug-In . SVG Version: 6.00 Build 0)  -->
<svg version="1.1" id="Слой_1" xmlns="http://www.w3.org/2000/svg" xmlns:xlink="http://www.w3.org/1999/xlink" x="0px" y="0px"
	 viewBox="0 0 165 70" style="enable-background:new 0 0 165 70;" xml:space="preserve">
<style type="text/css">
	.st0{fill:#5065A9;}
	.st1{fill:#61AFB0;}
	.st2{fill:#868686;}
</style>
<g>
	<path class="st0" d="M64.6,21.3V10.1h3v4.2H69l2.5-4.2h3.3l-3.5,5.5l3.7,5.7h-3.3L69,17h-1.4v4.3H64.6z"/>
	<path class="st0" d="M86.5,10.1v11.2h-3v-8.6h-2.4c-0.4,4.6-0.9,8.7-4.1,8.7c-0.4,0-0.9-0.1-1.4-0.2v-2.6c0.2,0.1,0.5,0.1,0.8,0.1
		c1.8-0.2,1.8-5.2,2-8.6H86.5z"/>
	<path class="st0" d="M96.1,21.3v-4.6c0-0.6,0-1.3,0.1-1.8l-4.4,6.4H89V10.1h3v4.6c0,0.6,0,1.3-0.1,1.9l4.4-6.4h2.8v11.2H96.1z"/>
	<path class="st0" d="M111.7,10.1v11.2h-3v-4.3h-4.2v4.3h-3V10.1h3v4.3h4.2v-4.3H111.7z"/>
	<path class="st0" d="M121.3,21.3v-4.6c0-0.6,0-1.3,0.1-1.8l-4.4,6.4h-2.8V10.1h3v4.6c0,0.6,0,1.3-0.1,1.9l4.4-6.4h2.8v11.2H121.3z"
		/>
	<path class="st0" d="M126.8,21.3V10.1h3v4.2h1.4l2.5-4.2h3.3l-3.5,5.5l3.7,5.7h-3.3l-2.7-4.3h-1.4v4.3H126.8z"/>
	<path class="st0" d="M137.5,21.3l4.4-11.2h3.2l4.4,11.2h-3l-0.6-1.8h-4.6l-0.6,1.8H137.5z M142.1,17.2h2.9l-1.2-3.2
		c-0.1-0.3-0.2-0.5-0.3-1.1c-0.1,0.6-0.2,0.9-0.3,1.1L142.1,17.2z"/>
	<path class="st1" d="M66.8,38.1c-0.6,0-1.2-0.1-1.8-0.3v-2.5c0.4,0.1,0.9,0.2,1.3,0.2c0.7,0,1.2-0.2,1.5-0.8l0.2-0.4l-4.4-7.8h3.3
		l2.5,5.1l2-5.1h3.3l-4.1,8.6C69.5,37.5,68.3,38.1,66.8,38.1z"/>
	<path class="st1" d="M74.8,37.9l3.8-5.8L75,26.6h3.5l2,3.3l2-3.3H86L82.4,32l3.8,5.8h-3.5l-2.3-3.8l-2.3,3.8H74.8z"/>
	<path class="st1" d="M86.5,37.9l4.4-11.2h3.2l4.4,11.2h-3l-0.6-1.8h-4.6l-0.6,1.8H86.5z M91.1,33.7h2.9l-1.2-3.2
		c-0.1-0.3-0.2-0.5-0.3-1.1c-0.1,0.6-0.2,0.9-0.3,1.1L91.1,33.7z"/>
	<path class="st1" d="M98.9,40.1l1.1-4.6h2.9l-1.8,4.6H98.9z"/>
	<path class="st1" d="M108.6,37.9V26.6h8.1v2.6h-5.1v8.6H108.6z"/>
	<path class="st1" d="M123.5,26.4c4,0,6,2.7,6,5.8s-2,5.8-6,5.8c-4,0-6-2.7-6-5.8S119.5,26.4,123.5,26.4z M123.5,29.1
		c-1.9,0-3,1.3-3,3.1c0,1.8,1,3.1,3,3.1c1.9,0,3-1.3,3-3.1C126.4,30.5,125.4,29.1,123.5,29.1z"/>
	<path class="st1" d="M135.9,26.6c2.8,0,4.9,0.9,4.9,3.8s-2.1,3.8-4.9,3.8h-1.5v3.5h-3V26.6H135.9z M136,29.2h-1.6v2.6h1.6
		c0.9,0,1.7-0.3,1.7-1.3C137.7,29.5,136.9,29.2,136,29.2z"/>
	<path class="st1" d="M151.5,26.6v11.2h-3v-8.6h-2.4c-0.4,4.6-0.9,8.7-4.1,8.7c-0.4,0-0.9-0.1-1.4-0.2v-2.6c0.2,0.1,0.5,0.1,0.8,0.1
		c1.8-0.2,1.8-5.2,2-8.6H151.5z"/>
	<path class="st1" d="M153,37.9l4.4-11.2h3.2l4.4,11.2h-3l-0.6-1.8h-4.6l-0.6,1.8H153z M157.6,33.7h2.9l-1.2-3.2
		c-0.1-0.3-0.2-0.5-0.3-1.1c-0.1,0.6-0.2,0.9-0.3,1.1L157.6,33.7z"/>
	<path class="st1" d="M71.8,54.4v-4.6c0-0.6,0-1.3,0.1-1.8l-4.4,6.4h-2.8V43.1h3v4.6c0,0.6,0,1.3-0.1,1.9l4.4-6.4h2.8v11.2H71.8z"/>
	<path class="st1" d="M91.1,43.1v11.2h-3v-4.3h-4.2v4.3h-3V43.1h3v4.3h4.2v-4.3H91.1z"/>
	<path class="st1" d="M99,42.9c4,0,6,2.7,6,5.8c0,3.1-2,5.8-6,5.8s-6-2.7-6-5.8C93,45.6,95,42.9,99,42.9z M99,45.6
		c-1.9,0-3,1.3-3,3.1c0,1.8,1,3.1,3,3.1c1.9,0,3-1.3,3-3.1C102,47,101,45.6,99,45.6z"/>
	<path class="st1" d="M112.5,42.9c1.1,0,2.3,0.2,3.3,0.7v2.8c-0.7-0.6-1.7-0.9-2.7-0.9c-1.8,0-3.5,1-3.5,3.4c0,2.2,1.8,3.1,3.5,3.1
		c1.2,0,2.2-0.4,2.9-1v2.9c-1,0.5-2.1,0.7-3.3,0.7c-3.1,0-6.1-1.7-6.1-5.7C106.4,44.7,109.5,42.9,112.5,42.9z"/>
	<path class="st1" d="M116.8,54.4l4.4-11.2h3.2l4.4,11.2h-3l-0.6-1.8h-4.6l-0.6,1.8H116.8z M121.4,50.2h2.9l-1.2-3.2
		c-0.1-0.3-0.2-0.5-0.3-1.1c-0.1,0.6-0.2,0.9-0.3,1.1L121.4,50.2z"/>
</g>
<g>
	<path class="st0" d="M33.6,27.2c0,3.5-2.8,6.3-6.3,6.3c-3.5,0-6.3-2.8-6.3-6.3s2.8-6.3,6.3-6.3C30.8,20.9,33.6,23.7,33.6,27.2z"/>
</g>
<g>
	<polygon class="st0" points="44.3,10.2 44.3,44.2 10.3,44.2 10.3,54.3 54.5,54.3 54.5,54.3 54.5,44.2 54.5,10.2 	"/>
</g>
<g>
	<polygon class="st1" points="10.3,44.2 10.3,10.2 44.3,10.2 44.3,0 0.2,0 0.2,0 0.2,10.2 0.2,44.2 	"/>
</g>
<g>
	<path class="st2" d="M64.4,69.7v-5.5h0.7v2.4h1.3l1.7-2.4h0.8l-1.9,2.7l2,2.8h-0.8l-1.8-2.5h-1.3v2.5H64.4z"/>
	<path class="st2" d="M72.1,64.2c1.3,0,2.3,0.4,2.3,1.8c0,1.4-1.1,1.8-2.3,1.8h-1.2v2h-0.7v-5.5H72.1z M72.2,64.8h-1.3v2.3h1.3
		c0.9,0,1.6-0.2,1.6-1.1C73.8,65.1,73.1,64.8,72.2,64.8z"/>
	<path class="st2" d="M76.5,69.8c-0.2,0-0.5,0-0.7-0.1v-0.6c0.2,0.1,0.4,0.1,0.6,0.1c0.4,0,0.8-0.1,1.1-0.7l0.1-0.2l-2.3-4h0.7
		l1.9,3.4l1.6-3.4h0.7l-2,4.3C77.7,69.6,77.1,69.8,76.5,69.8z"/>
	<path class="st2" d="M81.6,69.7v-5.5h3.6v0.6h-3v4.9H81.6z"/>
	<path class="st2" d="M90.4,64.2v5.5h-0.7v-4.9h-2.1c-0.2,2.5-0.4,5-1.9,5c-0.1,0-0.3,0-0.5-0.1v-0.6c0.1,0,0.2,0.1,0.4,0.1
		c1,0,1.2-2.5,1.3-4.9H90.4z"/>
	<path class="st2" d="M95,64.1c1.9,0,2.9,1.4,2.9,2.9c0,1.4-1,2.8-2.9,2.8c-1.9,0-2.9-1.4-2.9-2.8C92.1,65.5,93,64.1,95,64.1z
		 M95,64.8c-1.5,0-2.2,1.1-2.2,2.2c0,1.1,0.7,2.2,2.2,2.2c1.5,0,2.2-1.1,2.2-2.2C97.2,65.8,96.5,64.8,95,64.8z"/>
	<path class="st2" d="M102,64.1c0.6,0,1.1,0.1,1.6,0.4v0.7c-0.4-0.3-0.9-0.4-1.4-0.4c-1.1,0-2.3,0.7-2.3,2.3c0,1.5,1.2,2.2,2.4,2.2
		c0.6,0,1.1-0.1,1.5-0.4v0.7c-0.5,0.2-1,0.4-1.6,0.4c-1.4,0-2.9-1-2.9-2.8C99.1,65.1,100.6,64.1,102,64.1z"/>
	<path class="st2" d="M105.8,69.8c-0.2,0-0.5,0-0.7-0.1v-0.6c0.2,0.1,0.4,0.1,0.6,0.1c0.4,0,0.8-0.1,1.1-0.7l0.1-0.2l-2.3-4h0.7
		l1.9,3.4l1.6-3.4h0.7l-2,4.3C107,69.6,106.4,69.8,105.8,69.8z"/>
	<path class="st2" d="M114.8,64.2v0.6h-1.9v4.9h-0.7v-4.9h-1.9v-0.6H114.8z"/>
	<path class="st2" d="M118.4,64.1c1.9,0,2.9,1.4,2.9,2.9c0,1.4-1,2.8-2.9,2.8c-1.9,0-2.9-1.4-2.9-2.8
		C115.6,65.5,116.5,64.1,118.4,64.1z M118.4,64.8c-1.5,0-2.2,1.1-2.2,2.2c0,1.1,0.7,2.2,2.2,2.2c1.5,0,2.2-1.1,2.2-2.2
		C120.7,65.8,119.9,64.8,118.4,64.8z"/>
	<path class="st2" d="M126.3,69.7v-2.2c-0.6,0.2-1.1,0.3-1.6,0.3c-1.3,0-2-0.6-2-1.9v-1.8h0.7V66c0,0.9,0.6,1.2,1.5,1.2
		c0.5,0,1-0.1,1.5-0.3v-2.7h0.7v5.5H126.3z"/>
	<path class="st2" d="M133.6,64.2v5.5h-0.7v-2.4h-3.3v2.4H129v-5.5h0.7v2.4h3.3v-2.4H133.6z"/>
	<path class="st2" d="M138.1,64.1c1.9,0,2.9,1.4,2.9,2.9c0,1.4-1,2.8-2.9,2.8c-1.9,0-2.9-1.4-2.9-2.8
		C135.2,65.5,136.2,64.1,138.1,64.1z M138.1,64.8c-1.5,0-2.2,1.1-2.2,2.2c0,1.1,0.7,2.2,2.2,2.2c1.5,0,2.2-1.1,2.2-2.2
		C140.3,65.8,139.6,64.8,138.1,64.8z"/>
</g>
</svg>
