<?xml version="1.0" encoding="iso-8859-1"?>
<!-- Generator: Adobe Illustrator 19.0.0, SVG Export Plug-In . SVG Version: 6.00 Build 0)  -->
<svg version="1.1" id="Layer_1" xmlns="http://www.w3.org/2000/svg" xmlns:xlink="http://www.w3.org/1999/xlink" x="0px" y="0px"
	 viewBox="0 0 512 512" style="enable-background:new 0 0 512 512;" xml:space="preserve">
<path style="fill:#5e74b7;" d="M256,0C114.608,0.016,0.016,114.608,0,256c0.016,141.392,114.608,255.984,256,256
	c141.392-0.016,255.984-114.608,256-256C511.984,114.608,397.392,0.016,256,0z M414.384,414.384
	C373.808,454.944,317.904,480,256,480s-117.808-25.056-158.4-65.616C57.04,373.808,32,317.904,32,256S57.04,138.192,97.6,97.616
	C138.192,57.04,194.096,32,256,32s117.808,25.04,158.384,65.616c40.56,40.592,65.6,96.48,65.616,158.384
	C479.984,317.904,454.96,373.808,414.384,414.384z"/>
<polygon style="fill:#5bbdbe;" points="384,224 288,224 288,128 224,128 224,224 128,224 128,288 224,288 224,384 288,384 288,288 
	384,288 "/>
<g>
</g>
<g>
</g>
<g>
</g>
<g>
</g>
<g>
</g>
<g>
</g>
<g>
</g>
<g>
</g>
<g>
</g>
<g>
</g>
<g>
</g>
<g>
</g>
<g>
</g>
<g>
</g>
<g>
</g>
</svg>
